<svg class="link-svc-icon" xmlns="http://www.w3.org/2000/svg" viewBox="0 0 24 24" aria-hidden="true"><g transform="matrix(0.06086,0,0,0.06086,-3.517708,-3.51417)"><path d="M147.4,301.3C115.1,272.7 98.8,242.9 98.8,214.6C98.8,186.3 114.7,156.7 135.7,143.5C146,139.1 150.3,151.7 143.7,156.1C127,166.6 113.8,191.2 113.8,214.8C113.8,238.4 128.5,264.4 157.4,290C164.4,298.7 153.6,306.5 147.5,301.2L147.4,301.3ZM195.9,275.8C174,263.5 159.3,239.5 159.3,216.4C159.3,193.3 171.8,172.7 191.6,162.4C202.1,158.7 205.6,171.7 198.6,175.6C183.6,183.4 174.3,198.9 174.3,215.8C174.4,234.2 186,253 203.3,262.7C212,269.8 202.7,279.4 195.9,275.9L195.9,275.8ZM256,253.9C238.1,253.9 223.5,239.4 223.5,221.5C223.5,203.6 238.1,189 256,189L256,158.3C236.6,129.4 203.2,109.5 165.7,109.5C106.1,109.5 57.8,157.8 57.8,217.4C57.8,255.2 81.8,282.5 106.8,307.7L204.7,400.3C211,404.2 218.2,401.6 218.3,394.5L218.3,322.4C218.3,301.5 235.2,284.6 256.1,284.6L256,253.9ZM362.6,301.3C394.9,272.7 411.2,242.9 411.2,214.6C411.2,186.3 395.3,156.7 374.3,143.5C364,139.1 359.7,151.7 366.3,156.1C383,166.6 396.2,191.2 396.2,214.8C396.2,238.4 381.5,264.4 352.6,290C345.6,298.7 356.4,306.5 362.5,301.2L362.6,301.3ZM314.1,275.8C336,263.5 350.7,239.5 350.7,216.4C350.7,193.3 338.2,172.7 318.4,162.4C307.9,158.7 304.4,171.7 311.4,175.6C326.4,183.4 335.7,198.9 335.7,215.8C335.6,234.2 324,253 306.7,262.7C298,269.8 307.3,279.4 314.1,275.9L314.1,275.8ZM254,253.9C271.9,253.9 286.5,239.4 286.5,221.5C286.5,203.6 271.9,189 254,189L254,158.3C273.4,129.4 306.8,109.5 344.3,109.5C403.9,109.5 452.2,157.8 452.2,217.4C452.2,255.2 428.2,282.5 403.2,307.7L305.3,400.3C299,404.2 291.8,401.6 291.7,394.5L291.7,322.4C291.7,301.5 274.8,284.6 253.9,284.6L254,253.9Z"/></g></svg>
